<svg version="1.1" id="Layer_1" xmlns="http://www.w3.org/2000/svg" xmlns:xlink="http://www.w3.org/1999/xlink" x="0px" y="0px"
	 width="100%" viewBox="0 0 1022 436" enable-background="new 0 0 1022 436" xml:space="preserve">
<path fill="#E4F6F3" opacity="1.000000" stroke="none" 
	d="
M633.000000,437.000000 
	C422.000000,437.000000 211.500000,437.000000 1.000000,437.000000 
	C1.000000,291.666656 1.000000,146.333328 1.000000,1.000000 
	C341.666656,1.000000 682.333313,1.000000 1023.000000,1.000000 
	C1023.000000,146.333328 1023.000000,291.666656 1023.000000,437.000000 
	C893.166687,437.000000 763.333313,437.000000 633.000000,437.000000 
M453.128052,234.383667 
	C455.390686,239.731705 457.647003,245.082443 459.917114,250.427292 
	C470.356323,275.006165 480.834290,299.568665 491.216278,324.171692 
	C493.768768,330.220520 497.948914,333.394867 504.669281,333.107025 
	C508.661560,332.936005 512.667114,333.083771 516.666748,333.074066 
	C525.197815,333.053406 526.365051,331.890472 526.511719,323.276184 
	C526.531555,322.109955 526.514893,320.943146 526.514893,319.776581 
	C526.515381,268.781677 526.567505,217.786652 526.434448,166.792099 
	C526.421448,161.811676 527.318604,157.727341 531.236389,154.357758 
	C532.795044,153.017212 534.560974,150.902161 534.658447,149.056580 
	C535.048096,141.677628 534.819275,134.266006 534.819275,127.036530 
	C516.473816,127.036530 498.407074,127.036530 480.070190,127.036530 
	C480.070190,132.852402 480.107330,138.331146 480.059143,143.809158 
	C480.015778,148.738419 481.452026,153.172607 485.356720,156.209915 
	C488.987976,159.034561 489.549683,162.563385 489.530701,166.744873 
	C489.432556,188.408920 489.485046,210.073654 489.485016,231.738159 
	C489.485016,233.321732 489.485046,234.905304 489.485046,236.488876 
	C488.232880,236.007217 487.882019,235.361008 487.603333,234.685059 
	C477.171173,209.381668 466.758881,184.070084 456.312164,158.772720 
	C452.643280,149.888321 449.140381,140.919693 445.012543,132.251053 
	C443.914124,129.944366 440.840881,127.151138 438.577240,127.062515 
	C425.831604,126.563492 413.056335,126.821732 400.076874,126.821732 
	C400.076874,134.010193 399.335815,140.922913 400.364746,147.561279 
	C400.948517,151.327621 403.981415,155.072647 406.771118,158.010971 
	C408.586792,159.923386 409.895691,161.248901 409.889679,164.075836 
	C409.797211,207.571289 409.910034,251.067505 409.653381,294.561646 
	C409.634186,297.813629 407.364441,301.149445 405.780457,304.262939 
	C404.603943,306.575592 401.717010,308.507050 401.549408,310.754303 
	C400.999451,318.127167 401.342743,325.566620 401.342743,332.799805 
	C419.809021,332.799805 437.916321,332.799805 456.306458,332.799805 
	C456.306458,327.050323 456.117065,321.568268 456.359985,316.105469 
	C456.600159,310.705017 454.902924,306.151306 450.730896,302.908783 
	C447.396240,300.317078 446.782349,297.158813 446.797546,293.303223 
	C446.885651,270.972473 446.836487,248.641205 446.850464,226.310104 
	C446.851318,224.917816 446.993958,223.525635 447.150299,220.687164 
	C449.447754,225.903976 451.157043,229.785172 453.128052,234.383667 
M253.934875,270.500061 
	C253.649353,262.183594 253.909286,253.796860 252.850449,245.580032 
	C252.313248,241.411194 250.054916,237.033600 247.411209,233.662918 
	C242.918198,227.934311 242.558426,228.258835 247.343765,222.285416 
	C248.265442,221.134903 249.265015,219.830093 249.581100,218.448334 
	C251.012939,212.188980 253.058823,205.912125 253.325256,199.576035 
	C253.938690,184.987244 255.014465,170.265350 251.012680,155.906342 
	C246.374481,139.263687 233.857376,128.650467 216.882019,128.063416 
	C197.909119,127.407272 178.905609,127.628128 159.915268,127.488762 
	C154.448654,127.448647 148.981506,127.482613 143.524780,127.482613 
	C143.524780,134.697296 143.317307,141.479736 143.646011,148.236099 
	C143.750198,150.377411 144.722275,153.112534 146.271835,154.426498 
	C150.664734,158.151489 150.967117,162.831360 150.959167,167.960587 
	C150.894852,209.454895 150.881622,250.949432 150.972595,292.443634 
	C150.984741,297.984619 150.255157,302.983246 145.877151,306.924438 
	C144.965973,307.744720 144.203293,309.181610 144.113663,310.389374 
	C143.540771,318.109222 143.175064,325.844482 142.735245,333.680664 
	C161.777054,333.680664 179.867477,333.680664 198.169937,333.680664 
	C198.169937,327.627960 198.011795,321.822601 198.216568,316.030029 
	C198.403152,310.752380 196.096283,306.926544 192.453033,303.373413 
	C190.829346,301.789917 189.200012,299.281189 189.156052,297.159607 
	C188.866211,283.167511 188.955048,269.166016 189.087051,255.169128 
	C189.100647,253.727142 189.800903,251.636002 190.878403,250.967316 
	C197.316025,246.972046 211.098938,250.311783 214.305298,256.947876 
	C215.814713,260.071869 216.156693,263.983337 216.207153,267.549591 
	C216.409882,281.878113 216.245880,296.211395 216.304794,310.542542 
	C216.367523,325.804871 224.435730,333.931549 239.391388,333.934601 
	C241.724411,333.935059 244.057419,333.935577 246.390442,333.935638 
	C252.139999,333.935791 257.889557,333.935669 263.841766,333.935669 
	C263.841766,328.322052 263.690399,323.495911 263.880402,318.683289 
	C264.113617,312.776215 261.843658,308.265045 257.735992,304.044830 
	C255.695557,301.948486 254.285385,298.445984 254.103134,295.486481 
	C253.612396,287.517761 253.935074,279.498962 253.934875,270.500061 
M673.699768,203.499863 
	C673.788086,233.977005 673.510498,264.461334 674.110779,294.928406 
	C674.437439,311.507507 683.706970,322.781769 698.740234,329.186890 
	C715.765747,336.440796 733.391724,336.501038 751.066101,332.215057 
	C763.129272,329.289795 773.017456,322.911407 779.024414,311.577362 
	C783.037415,304.005646 783.780823,295.718170 783.806152,287.372314 
	C783.886169,261.056305 783.914978,234.739594 783.806824,208.423798 
	C783.743896,193.116882 783.816589,177.788879 783.034546,162.511002 
	C782.193726,146.084259 773.043823,135.046936 758.067017,129.040390 
	C741.267517,122.302811 723.866882,122.319748 706.617920,126.789070 
	C684.731873,132.459885 673.941895,146.868744 673.716980,169.521454 
	C673.607910,180.513229 673.699219,191.506989 673.699768,203.499863 
M335.553253,158.711227 
	C336.552734,158.711212 337.557068,158.775940 338.550903,158.700912 
	C346.263702,158.118546 353.465210,158.468185 358.061005,166.315216 
	C358.977295,167.879761 361.677032,169.126923 363.622559,169.229599 
	C370.326416,169.583496 377.060455,169.365753 383.936951,169.365753 
	C383.936951,158.794159 383.938782,148.309433 383.936340,137.824707 
	C383.934296,128.942062 381.259827,126.289803 372.276367,126.288681 
	C342.289703,126.284943 312.303009,126.287613 282.316345,126.287827 
	C280.693054,126.287834 279.069794,126.287819 277.238647,126.287819 
	C277.238647,133.705246 276.871033,140.683868 277.423920,147.588791 
	C277.637970,150.261993 279.316223,153.599869 281.420532,155.169540 
	C285.253845,158.028931 286.352631,161.324966 286.343048,165.807388 
	C286.251526,208.621490 286.253632,251.435959 286.345581,294.250061 
	C286.353760,298.058746 285.135132,300.791870 282.392395,303.427277 
	C280.347595,305.392090 278.036865,308.165253 277.821930,310.743256 
	C277.209137,318.093597 277.606659,325.528198 277.606659,333.031830 
	C309.801239,333.031830 341.943634,333.035858 374.086060,333.015564 
	C375.240295,333.014832 376.786194,333.201019 377.476929,332.567139 
	C379.772552,330.460602 383.464264,328.101929 383.581512,325.692047 
	C384.193359,313.116241 383.866913,300.494812 383.866913,287.476044 
	C378.979462,287.476044 374.507874,287.574127 370.042206,287.453705 
	C362.827850,287.259186 357.431091,289.861420 354.751587,296.918976 
	C353.533386,300.127655 351.272919,301.444031 347.804108,301.331757 
	C342.312317,301.154022 336.810364,301.312317 331.312988,301.280029 
	C324.797852,301.241730 323.730652,300.197845 323.719971,293.744385 
	C323.695709,279.084259 323.703308,264.424072 323.716125,249.763916 
	C323.722107,242.895432 324.428772,242.202042 331.556915,242.181046 
	C341.052612,242.153091 350.548523,242.199448 360.044189,242.165329 
	C366.398529,242.142502 366.973450,241.557892 367.002136,235.386429 
	C367.024597,230.555328 367.007080,225.724075 367.006561,220.892883 
	C367.005676,212.444687 366.613983,212.065277 357.864166,212.063629 
	C348.701569,212.061890 339.538940,212.083527 330.376434,212.055527 
	C324.739532,212.038300 323.747620,211.067947 323.725220,205.314224 
	C323.679169,193.486328 323.711121,181.658127 323.711426,169.830048 
	C323.711700,158.712265 323.711914,158.712265 335.553253,158.711227 
M564.565491,267.053009 
	C563.606750,269.164093 562.866455,271.410614 561.654663,273.364746 
	C552.284302,288.475494 549.182007,304.852264 550.710999,322.471039 
	C551.436646,330.833435 552.755798,332.830444 561.008789,332.833618 
	C581.172791,332.841309 601.336853,332.836395 621.500854,332.836090 
	C629.833130,332.835938 638.165405,332.849487 646.497620,332.827301 
	C650.439331,332.816803 653.781860,331.334595 653.858276,327.050476 
	C654.103882,313.276703 653.949768,299.495819 653.949768,285.292511 
	C649.707642,285.292511 645.909729,285.261414 642.112549,285.298309 
	C630.440491,285.411652 627.653076,287.582764 624.666382,299.068115 
	C616.268372,299.068115 607.785034,299.083923 599.301819,299.062439 
	C593.862732,299.048676 592.525330,297.240082 594.158630,292.041748 
	C594.604858,290.621368 595.324890,289.286072 595.931763,287.917297 
	C612.889160,249.668564 629.890991,211.439392 646.746094,173.145630 
	C648.595032,168.944992 650.460510,164.441162 650.812805,159.959595 
	C651.463867,151.678513 651.096924,143.308228 650.966309,134.978027 
	C650.872986,129.022781 648.702698,126.760521 642.755432,126.741455 
	C615.592651,126.654388 588.429260,126.668709 561.266296,126.732117 
	C555.956909,126.744514 554.165466,128.623032 554.096191,134.029602 
	C553.991699,142.193863 553.923889,150.363800 554.112122,158.525070 
	C554.288269,166.165283 557.648926,171.982391 563.705566,173.187119 
	C569.897644,174.418793 576.383545,174.173798 582.932190,174.587296 
	C582.932190,171.776855 582.928101,170.121902 582.932922,168.466995 
	C582.951599,162.130234 583.571899,161.350922 589.989746,161.118286 
	C595.315491,160.925232 600.654358,161.020035 605.986084,161.088058 
	C611.963989,161.164322 613.164490,163.073792 610.655884,168.442383 
	C595.402161,201.086273 580.133301,233.723160 564.565491,267.053009 
M822.991028,224.427124 
	C815.512024,260.462006 808.033020,296.496857 800.441772,333.072418 
	C809.422791,333.072418 817.752441,332.614197 826.001038,333.233795 
	C831.481445,333.645477 832.985657,331.403320 833.957825,326.643829 
	C845.386719,270.687622 856.983276,214.765656 868.527466,158.832977 
	C870.729065,148.166000 872.895996,137.491867 875.186401,126.295723 
	C866.054932,126.295723 857.574097,126.553001 849.119690,126.191071 
	C844.652466,125.999817 842.841553,127.295891 841.932495,131.852341 
	C835.824524,162.466675 829.397461,193.017349 822.991028,224.427124 
M66.236366,265.263367 
	C80.353607,279.090851 94.470840,292.918335 107.807877,305.981628 
	C114.114265,300.055695 120.687843,293.878723 128.512405,286.526215 
	C115.834587,274.373322 103.173279,262.236267 89.799446,249.416199 
	C102.666458,236.718323 115.064507,224.483246 127.078362,212.627304 
	C120.692055,206.233093 114.386368,199.919617 108.438316,193.964203 
	C89.940468,212.511047 70.968346,231.533432 51.510807,251.042511 
	C55.948711,255.322952 60.842548,260.043152 66.236366,265.263367 
M946.060974,271.560974 
	C953.014587,264.648682 959.968201,257.736420 966.453735,251.289413 
	C947.071716,231.907562 928.042297,212.878326 909.578125,194.414352 
	C903.612183,200.354340 897.295471,206.643555 890.104675,213.803024 
	C902.213867,225.878754 914.636719,238.267303 927.750549,251.344894 
	C915.229004,263.518188 902.723755,275.675629 890.535339,287.525055 
	C897.296936,294.250946 903.613403,300.533997 910.391785,307.276611 
	C921.843750,295.809601 933.702454,283.935364 946.060974,271.560974 
z"/>
<path fill="#131313" opacity="1.000000" stroke="none" 
	d="
M452.997192,234.025024 
	C451.157043,229.785172 449.447754,225.903976 447.150299,220.687164 
	C446.993958,223.525635 446.851318,224.917816 446.850464,226.310104 
	C446.836487,248.641205 446.885651,270.972473 446.797546,293.303223 
	C446.782349,297.158813 447.396240,300.317078 450.730896,302.908783 
	C454.902924,306.151306 456.600159,310.705017 456.359985,316.105469 
	C456.117065,321.568268 456.306458,327.050323 456.306458,332.799805 
	C437.916321,332.799805 419.809021,332.799805 401.342743,332.799805 
	C401.342743,325.566620 400.999451,318.127167 401.549408,310.754303 
	C401.717010,308.507050 404.603943,306.575592 405.780457,304.262939 
	C407.364441,301.149445 409.634186,297.813629 409.653381,294.561646 
	C409.910034,251.067505 409.797211,207.571289 409.889679,164.075836 
	C409.895691,161.248901 408.586792,159.923386 406.771118,158.010971 
	C403.981415,155.072647 400.948517,151.327621 400.364746,147.561279 
	C399.335815,140.922913 400.076874,134.010193 400.076874,126.821732 
	C413.056335,126.821732 425.831604,126.563492 438.577240,127.062515 
	C440.840881,127.151138 443.914124,129.944366 445.012543,132.251053 
	C449.140381,140.919693 452.643280,149.888321 456.312164,158.772720 
	C466.758881,184.070084 477.171173,209.381668 487.603333,234.685059 
	C487.882019,235.361008 488.232880,236.007217 489.485046,236.488876 
	C489.485046,234.905304 489.485016,233.321732 489.485016,231.738159 
	C489.485046,210.073654 489.432556,188.408920 489.530701,166.744873 
	C489.549683,162.563385 488.987976,159.034561 485.356720,156.209915 
	C481.452026,153.172607 480.015778,148.738419 480.059143,143.809158 
	C480.107330,138.331146 480.070190,132.852402 480.070190,127.036530 
	C498.407074,127.036530 516.473816,127.036530 534.819275,127.036530 
	C534.819275,134.266006 535.048096,141.677628 534.658447,149.056580 
	C534.560974,150.902161 532.795044,153.017212 531.236389,154.357758 
	C527.318604,157.727341 526.421448,161.811676 526.434448,166.792099 
	C526.567505,217.786652 526.515381,268.781677 526.514893,319.776581 
	C526.514893,320.943146 526.531555,322.109955 526.511719,323.276184 
	C526.365051,331.890472 525.197815,333.053406 516.666748,333.074066 
	C512.667114,333.083771 508.661560,332.936005 504.669281,333.107025 
	C497.948914,333.394867 493.768768,330.220520 491.216278,324.171692 
	C480.834290,299.568665 470.356323,275.006165 459.917114,250.427292 
	C457.647003,245.082443 455.390686,239.731705 452.997192,234.025024 
z"/>
<path fill="#131313" opacity="1.000000" stroke="none" 
	d="
M253.934875,271.000061 
	C253.935074,279.498962 253.612396,287.517761 254.103134,295.486481 
	C254.285385,298.445984 255.695557,301.948486 257.735992,304.044830 
	C261.843658,308.265045 264.113617,312.776215 263.880402,318.683289 
	C263.690399,323.495911 263.841766,328.322052 263.841766,333.935669 
	C257.889557,333.935669 252.139999,333.935791 246.390442,333.935638 
	C244.057419,333.935577 241.724411,333.935059 239.391388,333.934601 
	C224.435730,333.931549 216.367523,325.804871 216.304794,310.542542 
	C216.245880,296.211395 216.409882,281.878113 216.207153,267.549591 
	C216.156693,263.983337 215.814713,260.071869 214.305298,256.947876 
	C211.098938,250.311783 197.316025,246.972046 190.878403,250.967316 
	C189.800903,251.636002 189.100647,253.727142 189.087051,255.169128 
	C188.955048,269.166016 188.866211,283.167511 189.156052,297.159607 
	C189.200012,299.281189 190.829346,301.789917 192.453033,303.373413 
	C196.096283,306.926544 198.403152,310.752380 198.216568,316.030029 
	C198.011795,321.822601 198.169937,327.627960 198.169937,333.680664 
	C179.867477,333.680664 161.777054,333.680664 142.735245,333.680664 
	C143.175064,325.844482 143.540771,318.109222 144.113663,310.389374 
	C144.203293,309.181610 144.965973,307.744720 145.877151,306.924438 
	C150.255157,302.983246 150.984741,297.984619 150.972595,292.443634 
	C150.881622,250.949432 150.894852,209.454895 150.959167,167.960587 
	C150.967117,162.831360 150.664734,158.151489 146.271835,154.426498 
	C144.722275,153.112534 143.750198,150.377411 143.646011,148.236099 
	C143.317307,141.479736 143.524780,134.697296 143.524780,127.482613 
	C148.981506,127.482613 154.448654,127.448647 159.915268,127.488762 
	C178.905609,127.628128 197.909119,127.407272 216.882019,128.063416 
	C233.857376,128.650467 246.374481,139.263687 251.012680,155.906342 
	C255.014465,170.265350 253.938690,184.987244 253.325256,199.576035 
	C253.058823,205.912125 251.012939,212.188980 249.581100,218.448334 
	C249.265015,219.830093 248.265442,221.134903 247.343765,222.285416 
	C242.558426,228.258835 242.918198,227.934311 247.411209,233.662918 
	C250.054916,237.033600 252.313248,241.411194 252.850449,245.580032 
	C253.909286,253.796860 253.649353,262.183594 253.934875,271.000061 
M204.187912,159.957184 
	C200.693466,159.917908 197.194351,159.976807 193.705933,159.810760 
	C190.444931,159.655563 189.068237,161.380264 189.058899,164.302826 
	C189.006149,180.786087 188.953171,197.270691 189.182922,213.750916 
	C189.201233,215.064255 191.328781,217.425293 192.530975,217.461105 
	C198.143341,217.628464 203.843018,217.596207 209.376740,216.752106 
	C213.324142,216.149994 216.264450,213.436035 216.313919,208.846069 
	C216.451767,196.052521 217.007111,183.240967 216.505157,170.471619 
	C216.214798,163.084579 212.914047,160.842468 204.187912,159.957184 
z"/>
<path fill="#131313" opacity="1.000000" stroke="none" 
	d="
M673.699768,202.999847 
	C673.699219,191.506989 673.607910,180.513229 673.716980,169.521454 
	C673.941895,146.868744 684.731873,132.459885 706.617920,126.789070 
	C723.866882,122.319748 741.267517,122.302811 758.067017,129.040390 
	C773.043823,135.046936 782.193726,146.084259 783.034546,162.511002 
	C783.816589,177.788879 783.743896,193.116882 783.806824,208.423798 
	C783.914978,234.739594 783.886169,261.056305 783.806152,287.372314 
	C783.780823,295.718170 783.037415,304.005646 779.024414,311.577362 
	C773.017456,322.911407 763.129272,329.289795 751.066101,332.215057 
	C733.391724,336.501038 715.765747,336.440796 698.740234,329.186890 
	C683.706970,322.781769 674.437439,311.507507 674.110779,294.928406 
	C673.510498,264.461334 673.788086,233.977005 673.699768,202.999847 
M712.166321,193.499969 
	C712.166443,224.489151 712.129089,255.478424 712.188416,286.467499 
	C712.207397,296.413177 718.679382,302.887421 728.893799,302.850525 
	C736.776794,302.822052 745.303955,299.559143 745.299744,287.035309 
	C745.286865,248.715347 745.359070,210.395218 745.247192,172.075577 
	C745.219238,162.491272 738.207703,155.920288 728.733398,155.954742 
	C718.995605,155.990143 712.284546,162.655289 712.179077,172.507095 
	C712.107727,179.170654 712.165833,185.835632 712.166321,193.499969 
z"/>
<path fill="#141414" opacity="1.000000" stroke="none" 
	d="
M335.064819,158.711243 
	C323.711914,158.712265 323.711700,158.712265 323.711426,169.830048 
	C323.711121,181.658127 323.679169,193.486328 323.725220,205.314224 
	C323.747620,211.067947 324.739532,212.038300 330.376434,212.055527 
	C339.538940,212.083527 348.701569,212.061890 357.864166,212.063629 
	C366.613983,212.065277 367.005676,212.444687 367.006561,220.892883 
	C367.007080,225.724075 367.024597,230.555328 367.002136,235.386429 
	C366.973450,241.557892 366.398529,242.142502 360.044189,242.165329 
	C350.548523,242.199448 341.052612,242.153091 331.556915,242.181046 
	C324.428772,242.202042 323.722107,242.895432 323.716125,249.763916 
	C323.703308,264.424072 323.695709,279.084259 323.719971,293.744385 
	C323.730652,300.197845 324.797852,301.241730 331.312988,301.280029 
	C336.810364,301.312317 342.312317,301.154022 347.804108,301.331757 
	C351.272919,301.444031 353.533386,300.127655 354.751587,296.918976 
	C357.431091,289.861420 362.827850,287.259186 370.042206,287.453705 
	C374.507874,287.574127 378.979462,287.476044 383.866913,287.476044 
	C383.866913,300.494812 384.193359,313.116241 383.581512,325.692047 
	C383.464264,328.101929 379.772552,330.460602 377.476929,332.567139 
	C376.786194,333.201019 375.240295,333.014832 374.086060,333.015564 
	C341.943634,333.035858 309.801239,333.031830 277.606659,333.031830 
	C277.606659,325.528198 277.209137,318.093597 277.821930,310.743256 
	C278.036865,308.165253 280.347595,305.392090 282.392395,303.427277 
	C285.135132,300.791870 286.353760,298.058746 286.345581,294.250061 
	C286.253632,251.435959 286.251526,208.621490 286.343048,165.807388 
	C286.352631,161.324966 285.253845,158.028931 281.420532,155.169540 
	C279.316223,153.599869 277.637970,150.261993 277.423920,147.588791 
	C276.871033,140.683868 277.238647,133.705246 277.238647,126.287819 
	C279.069794,126.287819 280.693054,126.287834 282.316345,126.287827 
	C312.303009,126.287613 342.289703,126.284943 372.276367,126.288681 
	C381.259827,126.289803 383.934296,128.942062 383.936340,137.824707 
	C383.938782,148.309433 383.936951,158.794159 383.936951,169.365753 
	C377.060455,169.365753 370.326416,169.583496 363.622559,169.229599 
	C361.677032,169.126923 358.977295,167.879761 358.061005,166.315216 
	C353.465210,158.468185 346.263702,158.118546 338.550903,158.700912 
	C337.557068,158.775940 336.552734,158.711212 335.064819,158.711243 
z"/>
<path fill="#121313" opacity="1.000000" stroke="none" 
	d="
M564.717529,266.707703 
	C580.133301,233.723160 595.402161,201.086273 610.655884,168.442383 
	C613.164490,163.073792 611.963989,161.164322 605.986084,161.088058 
	C600.654358,161.020035 595.315491,160.925232 589.989746,161.118286 
	C583.571899,161.350922 582.951599,162.130234 582.932922,168.466995 
	C582.928101,170.121902 582.932190,171.776855 582.932190,174.587296 
	C576.383545,174.173798 569.897644,174.418793 563.705566,173.187119 
	C557.648926,171.982391 554.288269,166.165283 554.112122,158.525070 
	C553.923889,150.363800 553.991699,142.193863 554.096191,134.029602 
	C554.165466,128.623032 555.956909,126.744514 561.266296,126.732117 
	C588.429260,126.668709 615.592651,126.654388 642.755432,126.741455 
	C648.702698,126.760521 650.872986,129.022781 650.966309,134.978027 
	C651.096924,143.308228 651.463867,151.678513 650.812805,159.959595 
	C650.460510,164.441162 648.595032,168.944992 646.746094,173.145630 
	C629.890991,211.439392 612.889160,249.668564 595.931763,287.917297 
	C595.324890,289.286072 594.604858,290.621368 594.158630,292.041748 
	C592.525330,297.240082 593.862732,299.048676 599.301819,299.062439 
	C607.785034,299.083923 616.268372,299.068115 624.666382,299.068115 
	C627.653076,287.582764 630.440491,285.411652 642.112549,285.298309 
	C645.909729,285.261414 649.707642,285.292511 653.949768,285.292511 
	C653.949768,299.495819 654.103882,313.276703 653.858276,327.050476 
	C653.781860,331.334595 650.439331,332.816803 646.497620,332.827301 
	C638.165405,332.849487 629.833130,332.835938 621.500854,332.836090 
	C601.336853,332.836395 581.172791,332.841309 561.008789,332.833618 
	C552.755798,332.830444 551.436646,330.833435 550.710999,322.471039 
	C549.182007,304.852264 552.284302,288.475494 561.654663,273.364746 
	C562.866455,271.410614 563.606750,269.164093 564.717529,266.707703 
z"/>
<path fill="#131313" opacity="1.000000" stroke="none" 
	d="
M823.032349,224.007874 
	C829.397461,193.017349 835.824524,162.466675 841.932495,131.852341 
	C842.841553,127.295891 844.652466,125.999817 849.119690,126.191071 
	C857.574097,126.553001 866.054932,126.295723 875.186401,126.295723 
	C872.895996,137.491867 870.729065,148.166000 868.527466,158.832977 
	C856.983276,214.765656 845.386719,270.687622 833.957825,326.643829 
	C832.985657,331.403320 831.481445,333.645477 826.001038,333.233795 
	C817.752441,332.614197 809.422791,333.072418 800.441772,333.072418 
	C808.033020,296.496857 815.512024,260.462006 823.032349,224.007874 
z"/>
<path fill="#161717" opacity="1.000000" stroke="none" 
	d="
M65.986374,265.013367 
	C60.842548,260.043152 55.948711,255.322952 51.510807,251.042511 
	C70.968346,231.533432 89.940468,212.511047 108.438316,193.964203 
	C114.386368,199.919617 120.692055,206.233093 127.078362,212.627304 
	C115.064507,224.483246 102.666458,236.718323 89.799446,249.416199 
	C103.173279,262.236267 115.834587,274.373322 128.512405,286.526215 
	C120.687843,293.878723 114.114265,300.055695 107.807877,305.981628 
	C94.470840,292.918335 80.353607,279.090851 65.986374,265.013367 
z"/>
<path fill="#121212" opacity="1.000000" stroke="none" 
	d="
M945.811035,271.811035 
	C933.702454,283.935364 921.843750,295.809601 910.391785,307.276611 
	C903.613403,300.533997 897.296936,294.250946 890.535339,287.525055 
	C902.723755,275.675629 915.229004,263.518188 927.750549,251.344894 
	C914.636719,238.267303 902.213867,225.878754 890.104675,213.803024 
	C897.295471,206.643555 903.612183,200.354340 909.578125,194.414352 
	C928.042297,212.878326 947.071716,231.907562 966.453735,251.289413 
	C959.968201,257.736420 953.014587,264.648682 945.811035,271.811035 
z"/>
<path fill="#E2F5F2" opacity="1.000000" stroke="none" 
	d="
M204.639450,159.997040 
	C212.914047,160.842468 216.214798,163.084579 216.505157,170.471619 
	C217.007111,183.240967 216.451767,196.052521 216.313919,208.846069 
	C216.264450,213.436035 213.324142,216.149994 209.376740,216.752106 
	C203.843018,217.596207 198.143341,217.628464 192.530975,217.461105 
	C191.328781,217.425293 189.201233,215.064255 189.182922,213.750916 
	C188.953171,197.270691 189.006149,180.786087 189.058899,164.302826 
	C189.068237,161.380264 190.444931,159.655563 193.705933,159.810760 
	C197.194351,159.976807 200.693466,159.917908 204.639450,159.997040 
z"/>
<path fill="#E3F4F2" opacity="1.000000" stroke="none" 
	d="
M712.166199,192.999969 
	C712.165833,185.835632 712.107727,179.170654 712.179077,172.507095 
	C712.284546,162.655289 718.995605,155.990143 728.733398,155.954742 
	C738.207703,155.920288 745.219238,162.491272 745.247192,172.075577 
	C745.359070,210.395218 745.286865,248.715347 745.299744,287.035309 
	C745.303955,299.559143 736.776794,302.822052 728.893799,302.850525 
	C718.679382,302.887421 712.207397,296.413177 712.188416,286.467499 
	C712.129089,255.478424 712.166443,224.489151 712.166199,192.999969 
z"/>
</svg>