<svg version="1.1" id="Layer_1" xmlns="http://www.w3.org/2000/svg" xmlns:xlink="http://www.w3.org/1999/xlink" x="0px" y="0px"
	 width="100%" viewBox="0 0 1596 436" enable-background="new 0 0 1596 436" xml:space="preserve">
<path fill="#E6F6F4" opacity="1.000000" stroke="none" 
	d="
M688.745300,1.345293 
	C990.103455,1.000000 1291.206909,1.011511 1592.310425,0.881786 
	C1596.490601,0.879985 1597.106812,1.878705 1597.103394,5.808480 
	C1596.980225,148.111832 1596.984619,290.415314 1597.089966,432.718719 
	C1597.092651,436.236969 1596.476562,437.104736 1592.782959,437.103027 
	C1349.834473,436.989044 1106.885864,437.000000 863.468628,437.000000 
	C858.352966,433.056000 855.561218,427.691101 852.104736,422.829041 
	C836.304871,400.604370 821.443115,377.781616 807.887329,354.110687 
	C804.919373,348.928070 801.150146,344.201324 799.190796,338.454193 
	C798.500488,336.429413 797.289001,334.440796 799.544128,332.226013 
	C802.140869,331.167450 804.501648,331.444733 806.819458,331.297577 
	C811.695312,330.988037 813.288147,329.570862 814.045837,324.767456 
	C814.463013,322.123596 814.333923,319.447113 814.334167,316.782471 
	C814.339111,267.294312 814.389954,217.806000 814.266296,168.318161 
	C814.251892,162.562164 815.345398,157.626740 819.190491,153.124557 
	C824.842773,146.506470 823.408447,138.378204 823.021118,130.607910 
	C822.868896,127.553642 820.150208,127.777328 818.050964,127.729897 
	C810.888062,127.568054 803.721985,127.672081 796.557190,127.666107 
	C789.725525,127.660423 782.892334,127.740273 776.062805,127.640862 
	C772.321045,127.586388 770.507874,128.977432 770.649841,132.882233 
	C770.789001,136.708557 770.640198,140.545013 770.718811,144.377365 
	C770.805176,148.586990 772.302002,152.255066 775.306335,155.131454 
	C778.419373,158.111969 779.678162,161.614441 779.672424,165.862030 
	C779.643677,187.356735 779.688599,208.851654 779.619080,230.346313 
	C779.611755,232.611450 780.157349,235.986588 777.745667,236.557205 
	C775.079102,237.188141 774.563782,233.725601 773.778503,231.729004 
	C761.764709,201.180786 748.337769,171.211960 736.454407,140.611374 
	C735.911621,139.213486 735.283203,137.848557 734.744019,136.451065 
	C732.370178,130.298676 728.161072,127.060539 721.326782,127.630150 
	C719.184937,127.808670 716.989075,127.749458 714.494995,126.850212 
	C712.045898,125.155403 711.548645,122.813316 710.955017,120.577652 
	C704.885925,97.719269 699.360229,74.748978 695.272644,51.426937 
	C692.772644,37.162766 690.429504,22.885189 688.464905,8.542117 
	C688.153748,6.270314 687.282043,3.968112 688.745300,1.345293 
z"/>
<path fill="#E2F5F2" opacity="1.000000" stroke="none" 
	d="
M798.752136,332.902344 
	C799.862000,337.711334 801.779663,341.769928 804.105286,345.558716 
	C815.619019,364.315918 827.062805,383.121765 838.946289,401.644135 
	C845.458801,411.794952 852.804321,421.410583 859.744751,431.288208 
	C860.880737,432.904938 861.864136,434.628876 862.959045,436.651611 
	C577.229675,437.000000 291.459290,436.987854 5.689011,437.118347 
	C1.507556,437.120239 0.893331,436.119446 0.896727,432.190948 
	C1.019724,289.889099 1.015239,147.587097 0.910936,5.285209 
	C0.908365,1.777840 1.508429,0.894223 5.213036,0.896106 
	C232.829544,1.011832 460.446106,1.000000 688.531372,1.000002 
	C690.386902,10.616549 691.626099,20.257294 693.196411,29.843792 
	C695.380798,43.178955 697.419800,56.557335 700.233948,69.765305 
	C704.224731,88.495224 708.763367,107.111870 713.962524,125.971985 
	C712.291321,127.750076 710.243774,127.595963 708.260437,127.630699 
	C704.596191,127.694878 700.930542,127.624084 697.265930,127.661240 
	C691.025940,127.724495 690.738159,127.989166 690.669434,134.100937 
	C690.626343,137.931564 690.594116,141.763992 690.717957,145.594482 
	C690.860107,149.992584 692.376709,153.880280 695.965393,156.461746 
	C699.830750,159.242249 700.703674,162.914978 700.688477,167.338638 
	C700.614075,188.994705 700.652344,210.651230 700.653809,232.307602 
	C700.655090,251.631744 700.571655,270.956482 700.703613,290.279663 
	C700.744080,296.204742 699.634583,301.458008 695.269775,305.794983 
	C692.088684,308.955811 691.567383,313.075836 691.641479,317.372284 
	C691.918701,333.460663 689.548523,331.161713 705.246399,331.323242 
	C716.239929,331.436371 727.236023,331.399445 738.230347,331.320068 
	C743.788391,331.279938 744.114624,330.796906 744.355042,325.351105 
	C744.748474,316.440643 743.869263,308.034637 736.681519,301.516144 
	C734.604919,299.632935 734.400574,296.770905 734.390137,294.059540 
	C734.306213,272.070221 734.321350,250.080765 734.397400,228.091522 
	C734.404663,225.989685 734.026428,222.886688 736.291504,222.396469 
	C738.994385,221.811462 739.679626,225.020081 740.546204,227.035828 
	C753.769775,257.796112 766.731445,288.668427 779.805786,319.492035 
	C782.971436,326.955292 786.745300,332.319458 795.717896,331.559967 
	C796.700439,331.476776 797.670593,331.934448 798.752136,332.902344 
z"/>
<path fill="#131313" opacity="1.000000" stroke="none" 
	d="
M799.457947,333.181335 
	C787.470703,334.787109 781.869507,329.012543 777.674866,318.610352 
	C764.971802,287.107666 751.285156,256.001587 737.975403,224.743652 
	C737.613770,223.894318 737.181091,223.075226 735.837463,222.434006 
	C735.837463,223.984787 735.837463,225.535583 735.837463,227.086365 
	C735.837463,249.066483 735.887146,271.046814 735.792175,293.026520 
	C735.774841,297.047760 736.355286,300.365295 739.872498,303.069489 
	C743.899475,306.165527 745.592285,310.589264 745.353271,315.808899 
	C745.132568,320.627777 745.217590,325.467072 745.346375,330.292603 
	C745.404785,332.480225 744.646545,333.125610 742.482605,333.115692 
	C725.831360,333.039246 709.179565,333.047211 692.528137,333.105774 
	C690.591309,333.112579 689.922058,332.505951 689.964844,330.552643 
	C690.096008,324.561127 690.027954,318.565521 690.127930,312.572968 
	C690.178101,309.562256 691.627380,307.140686 693.903076,305.270935 
	C697.832153,302.042786 698.937805,297.975006 698.919067,292.929810 
	C698.760437,250.135788 698.801514,207.340851 698.887695,164.546417 
	C698.893555,161.636093 698.415405,159.626007 695.636230,158.076279 
	C691.471619,155.753967 689.237305,151.876129 689.076660,147.093323 
	C688.881287,141.271622 689.084839,135.436157 688.871948,129.615570 
	C688.776917,127.016296 689.898499,126.624680 692.110413,126.653534 
	C699.102478,126.744797 706.096802,126.665024 713.541870,126.515991 
	C717.480042,126.482666 720.980957,126.829948 724.449646,126.627151 
	C729.190796,126.349953 732.508301,128.091385 734.344238,132.472610 
	C739.213135,144.091385 744.089600,155.707275 748.892944,167.353165 
	C758.316895,190.201614 767.691956,213.070175 777.105591,235.922852 
	C777.200623,236.153519 777.543823,236.281982 777.867798,236.533066 
	C779.027649,235.090927 778.446411,233.409683 778.449585,231.887466 
	C778.495422,210.057022 778.433350,188.226273 778.523926,166.396118 
	C778.540649,162.375641 777.927551,159.026093 774.455811,156.320496 
	C770.566162,153.289200 769.013916,148.902557 769.059143,143.958115 
	C769.101868,139.292465 769.228821,134.618179 769.002991,129.963013 
	C768.871277,127.247772 769.857788,126.624840 772.392334,126.639534 
	C788.556396,126.733253 804.721924,126.764664 820.885193,126.617554 
	C823.904175,126.590080 824.504639,127.706116 824.361938,130.375137 
	C824.166565,134.030899 824.153625,137.713455 824.349243,141.369202 
	C824.669189,147.348801 823.397278,152.592010 818.411987,156.446625 
	C815.363953,158.803406 815.507996,162.185883 815.509033,165.557068 
	C815.524902,216.217224 815.420959,266.877686 815.570129,317.537384 
	C815.625610,336.379425 813.586121,332.728210 799.457947,333.181335 
z"/>
<path fill="#131313" opacity="1.000000" stroke="none" 
	d="
M1072.838989,230.000061 
	C1072.838989,249.655106 1072.950806,268.811066 1072.788208,287.964722 
	C1072.714600,296.630432 1071.821655,305.182983 1067.246216,312.958008 
	C1060.925171,323.698883 1051.179199,329.637054 1039.499390,332.377777 
	C1021.798889,336.531250 1004.142273,336.393280 987.192566,328.985382 
	C972.823914,322.705536 963.881409,311.768768 963.166443,295.835205 
	C962.405518,278.878082 962.699829,261.868805 962.719666,244.882538 
	C962.751404,217.737244 962.541687,190.582458 963.204712,163.450531 
	C963.606689,147.000320 972.923645,135.512360 987.775940,129.557129 
	C1007.104370,121.807182 1027.064819,121.510345 1046.668335,128.945877 
	C1061.978638,134.753036 1070.894287,145.981964 1072.128540,162.594391 
	C1073.783569,184.874664 1072.427002,207.199310 1072.838989,230.000061 
z"/>
<path fill="#121313" opacity="1.000000" stroke="none" 
	d="
M926.612671,193.625336 
	C912.611938,225.249283 898.790955,256.536713 884.971313,287.824738 
	C884.366272,289.194427 883.652649,290.530579 883.196045,291.948822 
	C881.510437,297.184753 882.828125,299.041016 888.207153,299.059082 
	C895.706299,299.084320 903.207214,298.976471 910.703796,299.115631 
	C913.108093,299.160278 914.229736,298.613617 914.556152,295.994476 
	C915.277893,290.202667 920.019714,286.306793 926.045044,285.627655 
	C943.038330,283.712402 943.003845,283.404114 943.004578,299.957336 
	C943.004944,308.289795 943.051636,316.622589 942.987488,324.954559 
	C942.943604,330.654358 940.876160,332.801727 935.101562,332.812988 
	C906.104797,332.869598 877.107727,332.868958 848.110962,332.813202 
	C842.362122,332.802124 839.922302,330.316010 839.855286,324.566406 
	C839.762085,316.568512 839.858948,308.568604 839.836609,300.569672 
	C839.828064,297.515839 840.576782,294.714539 841.878967,291.935333 
	C861.110291,250.890076 880.284851,209.818192 899.471375,168.751923 
	C902.173767,162.967789 901.105774,161.145782 894.840881,161.092239 
	C889.176819,161.043823 883.507324,161.011520 877.848145,161.204361 
	C873.904907,161.338760 871.507202,162.779541 871.813477,167.624771 
	C872.234253,174.281952 871.870422,174.305588 864.932800,174.304413 
	C862.933044,174.304077 860.929749,174.374710 858.934082,174.283096 
	C848.708374,173.813690 843.369934,168.582794 843.108643,158.384995 
	C842.899475,150.224548 842.979614,142.053238 843.097595,133.889130 
	C843.174561,128.563034 845.008362,126.736923 850.402649,126.724968 
	C877.399658,126.665108 904.396912,126.652710 931.393860,126.728020 
	C937.841614,126.746002 939.915894,129.001450 939.984375,135.611450 
	C940.065491,143.443100 940.020325,151.276291 939.995239,159.108704 
	C939.986084,161.958969 939.428589,164.710602 938.267395,167.332443 
	C934.436279,175.981857 930.616638,184.636353 926.612671,193.625336 
z"/>
<path fill="#131313" opacity="1.000000" stroke="none" 
	d="
M1145.134766,218.354691 
	C1137.441040,255.509369 1129.747803,292.229095 1122.315308,329.001587 
	C1121.601685,332.533020 1120.185181,333.194489 1117.062988,333.129578 
	C1109.239746,332.966888 1101.402222,332.861755 1093.587769,333.170532 
	C1089.781860,333.320923 1089.579590,331.802551 1090.200073,328.817535 
	C1098.208740,290.293060 1106.157837,251.756195 1114.138550,213.225876 
	C1119.763550,186.069244 1125.504395,158.936081 1130.956909,131.744995 
	C1131.799438,127.543655 1133.259888,125.922829 1137.726440,126.178261 
	C1145.029663,126.595909 1152.377686,126.426018 1159.699707,126.231758 
	C1163.184448,126.139297 1164.226807,126.766396 1163.396484,130.657501 
	C1157.644897,157.610321 1152.181030,184.624466 1146.615967,211.617126 
	C1146.180298,213.729843 1145.678711,215.828949 1145.134766,218.354691 
z"/>
<path fill="#121313" opacity="1.000000" stroke="none" 
	d="
M1230.813477,225.186432 
	C1238.365479,232.741501 1245.582153,240.135147 1253.019165,247.300110 
	C1255.392578,249.586838 1255.860718,250.913010 1253.213501,253.521774 
	C1236.008545,270.476990 1218.940552,287.572784 1201.977051,304.769714 
	C1199.343262,307.439667 1197.755371,307.511688 1195.232056,304.737701 
	C1190.977173,300.060028 1186.456299,295.605896 1181.824585,291.297089 
	C1179.431885,289.071045 1179.425781,287.716492 1181.822754,285.370331 
	C1192.416504,275.000671 1202.675049,264.286987 1213.326416,253.978363 
	C1216.413208,250.990906 1216.065186,249.364044 1213.189941,246.574554 
	C1202.669434,236.367630 1192.481689,225.817963 1181.981689,215.589203 
	C1179.448730,213.121628 1179.405396,211.677094 1182.006714,209.292831 
	C1186.789917,204.908630 1191.353638,200.267853 1195.785889,195.525497 
	C1197.883301,193.281372 1199.151611,193.383804 1201.277954,195.559860 
	C1210.940918,205.448700 1220.784790,215.160751 1230.813477,225.186432 
z"/>
<path fill="#121212" opacity="1.000000" stroke="none" 
	d="
M505.297913,278.000702 
	C505.222961,272.504425 505.352081,267.494568 505.025360,262.514587 
	C504.532837,255.007767 499.614166,250.348145 492.154541,249.902802 
	C478.002106,249.057907 478.002197,249.057892 478.002106,263.196930 
	C478.002014,273.861664 478.105347,284.527985 477.943665,295.190247 
	C477.888977,298.797089 478.775513,301.556274 481.716095,303.863312 
	C485.416870,306.766785 487.337402,310.653503 487.193573,315.557526 
	C487.047211,320.549011 487.144104,325.555115 487.346375,330.546204 
	C487.448425,333.064453 486.782227,334.010590 484.058380,333.990143 
	C467.895569,333.868744 451.731171,333.893707 435.567810,333.969727 
	C433.185852,333.980927 431.840942,333.648712 432.019012,330.775055 
	C432.327698,325.793732 432.324799,320.792816 432.438568,315.799774 
	C432.540344,311.335358 433.613617,307.350189 437.115723,304.169495 
	C439.630890,301.885193 439.905151,298.582306 439.907227,295.402924 
	C439.935822,252.077454 439.914703,208.751968 439.943390,165.426514 
	C439.946045,161.430222 439.221313,157.912613 435.842529,155.236496 
	C432.842102,152.860046 432.389984,149.211121 432.215607,145.737152 
	C431.956909,140.583710 432.188629,135.407379 432.029877,130.246384 
	C431.960205,127.981842 432.885742,127.433800 434.959198,127.462975 
	C459.445282,127.807655 483.954620,126.626091 508.416656,128.131805 
	C523.194458,129.041428 535.690857,140.345169 540.018921,155.948669 
	C544.002563,170.310364 542.680054,185.014908 542.433350,199.623428 
	C542.323914,206.101990 541.594910,212.553375 538.618103,218.497375 
	C538.097717,219.536423 537.642456,220.630966 536.972351,221.567596 
	C535.353149,223.830612 532.029541,225.433197 532.268494,228.304733 
	C532.500061,231.086227 535.899963,232.438232 537.599121,234.674347 
	C540.267944,238.186554 541.797546,242.133499 542.210449,246.582001 
	C543.677307,262.384613 542.681396,278.218231 542.867249,294.035278 
	C542.918518,298.397888 543.329529,302.120941 547.273865,304.981384 
	C552.398926,308.698029 553.186768,314.343964 552.825195,320.217255 
	C552.552063,324.653381 554.731384,330.364929 551.884521,333.173584 
	C549.283081,335.740143 543.643555,333.784821 539.345886,333.907959 
	C535.516418,334.017700 531.681274,333.931061 527.848633,333.930420 
	C513.790405,333.928040 505.555206,325.840027 505.332245,311.492920 
	C505.161377,300.497925 505.298035,289.498138 505.297913,278.000702 
z"/>
<path fill="#141414" opacity="1.000000" stroke="none" 
	d="
M612.706726,281.997437 
	C612.707581,286.661407 612.788208,290.827881 612.687378,294.990021 
	C612.579834,299.427948 614.688354,301.370911 619.054138,301.310547 
	C625.049988,301.227631 631.050049,301.190613 637.043884,301.327698 
	C640.294189,301.402008 642.484741,300.182526 643.627563,297.153534 
	C646.363342,289.902588 651.852478,287.095398 659.279480,287.492676 
	C663.730774,287.730804 669.641479,285.580597 672.206177,288.419647 
	C674.395142,290.842804 672.891663,296.652008 672.921082,300.964111 
	C672.968750,307.960266 672.943542,314.956970 672.932129,321.953461 
	C672.918640,330.177917 670.216858,333.015472 661.839661,333.046051 
	C639.851013,333.126251 617.861877,333.075531 595.872925,333.076477 
	C587.210632,333.076843 578.546021,332.963745 569.887268,333.138519 
	C567.003235,333.196716 565.667480,332.718964 565.917480,329.408539 
	C566.242737,325.101593 566.007019,320.752350 566.012634,316.421295 
	C566.019958,310.859253 567.268799,305.870178 572.189270,302.454346 
	C574.582031,300.793304 575.315186,298.360504 575.312988,295.503540 
	C575.279114,251.692261 575.270142,207.880936 575.319275,164.069672 
	C575.323181,160.620697 574.295349,157.847855 571.336731,156.048996 
	C567.467407,153.696442 566.331848,149.981049 566.185364,145.869247 
	C565.989807,140.378693 566.142212,134.875854 565.953125,129.384918 
	C565.870728,126.993301 566.649292,126.243172 569.060791,126.248329 
	C600.711365,126.316040 632.362366,126.242966 664.012817,126.340492 
	C669.624756,126.357780 672.872131,129.918533 672.912598,135.568695 
	C672.986572,145.896301 672.821899,156.226807 673.004822,166.551712 
	C673.057495,169.527832 672.001953,170.199783 669.294556,170.055405 
	C665.473999,169.851669 661.634460,170.012589 657.803040,170.001205 
	C652.540527,169.985550 647.962646,168.464691 644.853088,163.905869 
	C641.923340,159.610764 637.882507,158.264145 632.799622,158.635071 
	C628.160034,158.973663 623.473511,158.805237 618.812683,158.678375 
	C614.639893,158.564774 612.666504,160.346695 612.685364,164.592590 
	C612.746765,178.418701 612.757507,192.245529 612.679749,206.071487 
	C612.654419,210.581787 614.689697,212.224762 619.129028,212.127975 
	C628.453247,211.924683 637.784973,212.063919 647.113647,212.067169 
	C655.471130,212.070068 656.002014,212.584732 656.003662,220.647171 
	C656.004578,225.478073 656.016541,230.309036 656.000732,235.139877 
	C655.979370,241.674637 655.516785,242.143890 648.786011,242.163818 
	C639.624023,242.190948 630.461853,242.162720 621.299805,242.172638 
	C613.228333,242.181366 612.712585,242.686218 612.708679,250.513824 
	C612.703552,260.841888 612.706970,271.169983 612.706726,281.997437 
z"/>
<path fill="#141414" opacity="1.000000" stroke="none" 
	d="
M402.507690,273.492523 
	C406.640625,277.626129 410.447052,281.590698 414.438965,285.358795 
	C416.410797,287.220093 416.771576,288.580475 414.617615,290.631653 
	C409.557617,295.450134 404.628540,300.412048 399.786957,305.450958 
	C397.938843,307.374390 396.708374,307.188324 394.911957,305.368530 
	C377.379700,287.608185 359.809845,269.884460 342.148499,252.252701 
	C340.161591,250.269104 340.578552,249.184906 342.310486,247.462326 
	C359.773254,230.093887 377.193481,212.682495 394.561707,195.219498 
	C396.555359,193.214951 397.917236,192.654022 400.147766,195.070816 
	C404.658905,199.958542 409.395538,204.653702 414.254120,209.198547 
	C416.659576,211.448715 416.590057,212.866577 414.230865,215.172806 
	C403.640533,225.525421 393.311340,236.145294 382.713196,246.489746 
	C380.087708,249.052383 379.389435,250.600769 382.487762,253.485046 
	C389.302673,259.829193 395.693665,266.628784 402.507690,273.492523 
z"/>
<path fill="#E3F4F2" opacity="1.000000" stroke="none" 
	d="
M1005.690063,160.700745 
	C1014.319275,154.078613 1023.967773,154.615540 1030.709839,161.656158 
	C1033.180908,164.236679 1034.182129,167.222778 1034.198608,170.665588 
	C1034.237671,178.821823 1034.292358,186.978104 1034.295166,195.134384 
	C1034.305542,225.433884 1034.323608,255.733429 1034.280151,286.032867 
	C1034.267700,294.774750 1031.361572,299.452911 1024.796509,301.816254 
	C1017.717957,304.364471 1009.059631,302.188202 1004.252136,296.771362 
	C1001.741333,293.942291 1001.195435,290.528229 1001.191772,287.010254 
	C1001.151917,248.719711 1001.145264,210.429092 1001.195862,172.138580 
	C1001.201416,167.960388 1001.540222,163.751724 1005.690063,160.700745 
z"/>
<path fill="#E2F5F2" opacity="1.000000" stroke="none" 
	d="
M502.840637,163.222794 
	C504.662354,165.537567 505.485229,168.017441 505.595245,170.433151 
	C506.178284,183.234909 506.641357,196.040039 505.379974,208.848770 
	C504.931091,213.406570 502.301819,215.800339 498.378052,216.838913 
	C493.026489,218.255371 487.508148,218.286255 481.994568,217.760773 
	C479.198059,217.494247 477.962433,216.131607 477.975159,213.232330 
	C478.046173,197.068237 478.005615,180.903702 478.016388,164.739304 
	C478.018707,161.258514 479.602478,159.497772 483.272461,159.819885 
	C489.773193,160.390457 496.705078,158.285446 502.840637,163.222794 
z"/>
</svg>